<mxfile host="Electron" modified="2024-01-19T01:22:46.442Z" agent="Mozilla/5.0 (Windows NT 10.0; Win64; x64) AppleWebKit/537.36 (KHTML, like Gecko) draw.io/22.1.16 Chrome/120.0.6099.109 Electron/28.1.0 Safari/537.36" etag="cIynwgwHfWmGz55Pw0IS" version="22.1.16" type="device">
  <diagram name="Strona-1" id="HDUOyaGQCRLY7hhTfCcC">
    <mxGraphModel dx="988" dy="570" grid="1" gridSize="10" guides="1" tooltips="1" connect="1" arrows="1" fold="1" page="1" pageScale="1" pageWidth="827" pageHeight="1169" math="0" shadow="0">
      <root>
        <mxCell id="0" />
        <mxCell id="1" parent="0" />
        <mxCell id="runT3AyKr49VSdhNjqDn-29" value="" style="shape=cube;whiteSpace=wrap;html=1;boundedLbl=1;backgroundOutline=1;darkOpacity=0.05;darkOpacity2=0.1;size=10;fillColor=#dae8fc;strokeColor=#6c8ebf;" parent="1" vertex="1">
          <mxGeometry x="30" y="30" width="90" height="90" as="geometry" />
        </mxCell>
        <mxCell id="runT3AyKr49VSdhNjqDn-30" value="" style="shape=cube;whiteSpace=wrap;html=1;boundedLbl=1;backgroundOutline=1;darkOpacity=0.05;darkOpacity2=0.1;size=40;" parent="1" vertex="1">
          <mxGeometry x="250" y="575" width="80" height="80" as="geometry" />
        </mxCell>
        <mxCell id="runT3AyKr49VSdhNjqDn-31" value="" style="shape=cube;whiteSpace=wrap;html=1;boundedLbl=1;backgroundOutline=1;darkOpacity=0.05;darkOpacity2=0.1;size=10;fillColor=#dae8fc;strokeColor=#6c8ebf;" parent="1" vertex="1">
          <mxGeometry x="270" y="70" width="50" height="50" as="geometry" />
        </mxCell>
        <mxCell id="runT3AyKr49VSdhNjqDn-32" value="Conv&lt;br&gt;1x1" style="rounded=1;whiteSpace=wrap;html=1;" parent="1" vertex="1">
          <mxGeometry x="360" y="30" width="50" height="50" as="geometry" />
        </mxCell>
        <mxCell id="runT3AyKr49VSdhNjqDn-35" value="Depthwise&lt;br&gt;Conv&lt;br&gt;3x3" style="rounded=1;whiteSpace=wrap;html=1;" parent="1" vertex="1">
          <mxGeometry x="360" y="90" width="70" height="50" as="geometry" />
        </mxCell>
        <mxCell id="runT3AyKr49VSdhNjqDn-36" value="" style="shape=cube;whiteSpace=wrap;html=1;boundedLbl=1;backgroundOutline=1;darkOpacity=0.05;darkOpacity2=0.1;size=10;" parent="1" vertex="1">
          <mxGeometry x="80" y="200" width="90" height="90" as="geometry" />
        </mxCell>
        <mxCell id="runT3AyKr49VSdhNjqDn-37" value="" style="endArrow=classic;html=1;rounded=0;" parent="1" edge="1">
          <mxGeometry width="50" height="50" relative="1" as="geometry">
            <mxPoint x="180" y="244.79000000000002" as="sourcePoint" />
            <mxPoint x="200" y="244.79000000000002" as="targetPoint" />
          </mxGeometry>
        </mxCell>
        <mxCell id="runT3AyKr49VSdhNjqDn-40" value="" style="endArrow=classic;html=1;rounded=0;" parent="1" edge="1">
          <mxGeometry width="50" height="50" relative="1" as="geometry">
            <mxPoint x="270" y="244.79000000000002" as="sourcePoint" />
            <mxPoint x="290" y="244.79000000000002" as="targetPoint" />
          </mxGeometry>
        </mxCell>
        <mxCell id="runT3AyKr49VSdhNjqDn-41" value="Conv&lt;br&gt;3x3" style="rounded=1;whiteSpace=wrap;html=1;" parent="1" vertex="1">
          <mxGeometry x="440" y="40" width="50" height="50" as="geometry" />
        </mxCell>
        <mxCell id="runT3AyKr49VSdhNjqDn-43" value="" style="endArrow=classic;html=1;rounded=0;" parent="1" edge="1">
          <mxGeometry width="50" height="50" relative="1" as="geometry">
            <mxPoint x="330" y="119.58000000000001" as="sourcePoint" />
            <mxPoint x="350" y="119.58000000000001" as="targetPoint" />
          </mxGeometry>
        </mxCell>
        <mxCell id="runT3AyKr49VSdhNjqDn-44" value="" style="endArrow=classic;html=1;rounded=0;" parent="1" edge="1">
          <mxGeometry width="50" height="50" relative="1" as="geometry">
            <mxPoint x="360" y="244.79000000000002" as="sourcePoint" />
            <mxPoint x="380" y="244.79000000000002" as="targetPoint" />
          </mxGeometry>
        </mxCell>
        <mxCell id="runT3AyKr49VSdhNjqDn-46" value="" style="endArrow=classic;html=1;rounded=0;" parent="1" edge="1">
          <mxGeometry width="50" height="50" relative="1" as="geometry">
            <mxPoint x="454" y="244.79000000000002" as="sourcePoint" />
            <mxPoint x="474" y="244.79000000000002" as="targetPoint" />
          </mxGeometry>
        </mxCell>
        <mxCell id="runT3AyKr49VSdhNjqDn-47" value="" style="verticalLabelPosition=bottom;shadow=0;dashed=0;align=center;html=1;verticalAlign=top;shape=mxgraph.electrical.abstract.summation_point;" parent="1" vertex="1">
          <mxGeometry x="480" y="235" width="20" height="20" as="geometry" />
        </mxCell>
        <mxCell id="runT3AyKr49VSdhNjqDn-48" value="" style="endArrow=classic;html=1;rounded=0;" parent="1" edge="1">
          <mxGeometry width="50" height="50" relative="1" as="geometry">
            <mxPoint x="510" y="244.79000000000002" as="sourcePoint" />
            <mxPoint x="530" y="244.79000000000002" as="targetPoint" />
          </mxGeometry>
        </mxCell>
        <mxCell id="runT3AyKr49VSdhNjqDn-49" value="" style="shape=cube;whiteSpace=wrap;html=1;boundedLbl=1;backgroundOutline=1;darkOpacity=0.05;darkOpacity2=0.1;size=40;" parent="1" vertex="1">
          <mxGeometry x="540" y="205" width="80" height="80" as="geometry" />
        </mxCell>
        <mxCell id="runT3AyKr49VSdhNjqDn-50" value="" style="endArrow=classic;html=1;rounded=1;curved=0;" parent="1" edge="1">
          <mxGeometry width="50" height="50" relative="1" as="geometry">
            <mxPoint x="180" y="250" as="sourcePoint" />
            <mxPoint x="490" y="260" as="targetPoint" />
            <Array as="points">
              <mxPoint x="180" y="290" />
              <mxPoint x="490" y="290" />
            </Array>
          </mxGeometry>
        </mxCell>
        <mxCell id="runT3AyKr49VSdhNjqDn-51" value="tożsamość lub projekcja" style="text;html=1;strokeColor=none;fillColor=none;align=center;verticalAlign=middle;whiteSpace=wrap;rounded=0;" parent="1" vertex="1">
          <mxGeometry x="265" y="290" width="140" height="20" as="geometry" />
        </mxCell>
        <mxCell id="runT3AyKr49VSdhNjqDn-52" value="64x112x112" style="text;html=1;strokeColor=none;fillColor=none;align=center;verticalAlign=middle;whiteSpace=wrap;rounded=0;" parent="1" vertex="1">
          <mxGeometry x="90" y="180" width="70" height="20" as="geometry" />
        </mxCell>
        <mxCell id="runT3AyKr49VSdhNjqDn-53" value="256x56x56" style="text;html=1;strokeColor=none;fillColor=none;align=center;verticalAlign=middle;whiteSpace=wrap;rounded=0;" parent="1" vertex="1">
          <mxGeometry x="545" y="185" width="70" height="20" as="geometry" />
        </mxCell>
        <mxCell id="runT3AyKr49VSdhNjqDn-54" value="ResNet-50/101/152 - bottleneck&amp;nbsp;" style="text;html=1;strokeColor=none;fillColor=none;align=center;verticalAlign=middle;whiteSpace=wrap;rounded=0;" parent="1" vertex="1">
          <mxGeometry x="620" y="140" width="190" height="30" as="geometry" />
        </mxCell>
        <mxCell id="runT3AyKr49VSdhNjqDn-55" value="" style="shape=cube;whiteSpace=wrap;html=1;boundedLbl=1;backgroundOutline=1;darkOpacity=0.05;darkOpacity2=0.1;size=10;fillColor=#f8cecc;strokeColor=#b85450;" parent="1" vertex="1">
          <mxGeometry x="40" y="360" width="50" height="50" as="geometry" />
        </mxCell>
        <mxCell id="runT3AyKr49VSdhNjqDn-56" value="DenseNet - 4-layer dense block" style="text;html=1;strokeColor=none;fillColor=none;align=center;verticalAlign=middle;whiteSpace=wrap;rounded=0;" parent="1" vertex="1">
          <mxGeometry x="710" y="370" width="110" height="30" as="geometry" />
        </mxCell>
        <mxCell id="runT3AyKr49VSdhNjqDn-57" value="Conv" style="rounded=1;whiteSpace=wrap;html=1;" parent="1" vertex="1">
          <mxGeometry x="120" y="360" width="50" height="50" as="geometry" />
        </mxCell>
        <mxCell id="runT3AyKr49VSdhNjqDn-58" value="" style="shape=cube;whiteSpace=wrap;html=1;boundedLbl=1;backgroundOutline=1;darkOpacity=0.05;darkOpacity2=0.1;size=10;fillColor=#d5e8d4;strokeColor=#82b366;" parent="1" vertex="1">
          <mxGeometry x="200" y="360" width="50" height="50" as="geometry" />
        </mxCell>
        <mxCell id="runT3AyKr49VSdhNjqDn-59" value="" style="shape=cube;whiteSpace=wrap;html=1;boundedLbl=1;backgroundOutline=1;darkOpacity=0.05;darkOpacity2=0.1;size=10;fillColor=#fff2cc;strokeColor=#d6b656;" parent="1" vertex="1">
          <mxGeometry x="520" y="360" width="50" height="50" as="geometry" />
        </mxCell>
        <mxCell id="runT3AyKr49VSdhNjqDn-60" value="" style="shape=cube;whiteSpace=wrap;html=1;boundedLbl=1;backgroundOutline=1;darkOpacity=0.05;darkOpacity2=0.1;size=10;fillColor=#dae8fc;strokeColor=#6c8ebf;" parent="1" vertex="1">
          <mxGeometry x="360" y="360" width="50" height="50" as="geometry" />
        </mxCell>
        <mxCell id="runT3AyKr49VSdhNjqDn-61" value="Conv" style="rounded=1;whiteSpace=wrap;html=1;" parent="1" vertex="1">
          <mxGeometry x="280" y="360" width="50" height="50" as="geometry" />
        </mxCell>
        <mxCell id="runT3AyKr49VSdhNjqDn-62" value="Conv" style="rounded=1;whiteSpace=wrap;html=1;" parent="1" vertex="1">
          <mxGeometry x="440" y="360" width="50" height="50" as="geometry" />
        </mxCell>
        <mxCell id="runT3AyKr49VSdhNjqDn-63" value="" style="rounded=1;whiteSpace=wrap;html=1;" parent="1" vertex="1">
          <mxGeometry x="600" y="360" width="70" height="50" as="geometry" />
        </mxCell>
        <mxCell id="runT3AyKr49VSdhNjqDn-67" value="" style="endArrow=classic;html=1;rounded=0;exitX=1.002;exitY=0.499;exitDx=0;exitDy=0;exitPerimeter=0;fillColor=#f8cecc;strokeColor=#b85450;" parent="1" source="runT3AyKr49VSdhNjqDn-55" edge="1">
          <mxGeometry width="50" height="50" relative="1" as="geometry">
            <mxPoint x="100" y="384.79" as="sourcePoint" />
            <mxPoint x="120" y="384.79" as="targetPoint" />
          </mxGeometry>
        </mxCell>
        <mxCell id="runT3AyKr49VSdhNjqDn-68" value="" style="endArrow=classic;html=1;rounded=0;exitX=1.009;exitY=0.495;exitDx=0;exitDy=0;exitPerimeter=0;fillColor=#fff2cc;strokeColor=#d6b656;" parent="1" source="runT3AyKr49VSdhNjqDn-59" edge="1">
          <mxGeometry width="50" height="50" relative="1" as="geometry">
            <mxPoint x="580" y="384.79" as="sourcePoint" />
            <mxPoint x="600" y="384.79" as="targetPoint" />
          </mxGeometry>
        </mxCell>
        <mxCell id="runT3AyKr49VSdhNjqDn-71" value="" style="endArrow=classic;html=1;rounded=0;exitX=1;exitY=0.5;exitDx=0;exitDy=0;entryX=-0.002;entryY=0.499;entryDx=0;entryDy=0;entryPerimeter=0;fillColor=#dae8fc;strokeColor=#6c8ebf;" parent="1" source="runT3AyKr49VSdhNjqDn-62" target="runT3AyKr49VSdhNjqDn-59" edge="1">
          <mxGeometry width="50" height="50" relative="1" as="geometry">
            <mxPoint x="500" y="400" as="sourcePoint" />
            <mxPoint x="550" y="350" as="targetPoint" />
          </mxGeometry>
        </mxCell>
        <mxCell id="runT3AyKr49VSdhNjqDn-72" value="" style="endArrow=classic;html=1;rounded=0;exitX=1;exitY=0.497;exitDx=0;exitDy=0;exitPerimeter=0;entryX=0;entryY=0.5;entryDx=0;entryDy=0;fillColor=#dae8fc;strokeColor=#6c8ebf;" parent="1" source="runT3AyKr49VSdhNjqDn-60" target="runT3AyKr49VSdhNjqDn-62" edge="1">
          <mxGeometry width="50" height="50" relative="1" as="geometry">
            <mxPoint x="400" y="400" as="sourcePoint" />
            <mxPoint x="450" y="350" as="targetPoint" />
          </mxGeometry>
        </mxCell>
        <mxCell id="runT3AyKr49VSdhNjqDn-73" value="" style="endArrow=classic;html=1;rounded=0;exitX=1;exitY=0.5;exitDx=0;exitDy=0;entryX=0.003;entryY=0.497;entryDx=0;entryDy=0;entryPerimeter=0;fillColor=#f8cecc;strokeColor=#b85450;" parent="1" source="runT3AyKr49VSdhNjqDn-57" target="runT3AyKr49VSdhNjqDn-58" edge="1">
          <mxGeometry width="50" height="50" relative="1" as="geometry">
            <mxPoint x="240" y="400" as="sourcePoint" />
            <mxPoint x="290" y="350" as="targetPoint" />
          </mxGeometry>
        </mxCell>
        <mxCell id="runT3AyKr49VSdhNjqDn-74" value="" style="endArrow=classic;html=1;rounded=0;entryX=0;entryY=0.5;entryDx=0;entryDy=0;fillColor=#d5e8d4;strokeColor=#82b366;" parent="1" target="runT3AyKr49VSdhNjqDn-61" edge="1">
          <mxGeometry width="50" height="50" relative="1" as="geometry">
            <mxPoint x="250" y="385" as="sourcePoint" />
            <mxPoint x="290" y="350" as="targetPoint" />
          </mxGeometry>
        </mxCell>
        <mxCell id="runT3AyKr49VSdhNjqDn-75" value="" style="endArrow=classic;html=1;rounded=0;exitX=1;exitY=0.5;exitDx=0;exitDy=0;entryX=0;entryY=0.497;entryDx=0;entryDy=0;entryPerimeter=0;fillColor=#d5e8d4;strokeColor=#82b366;" parent="1" source="runT3AyKr49VSdhNjqDn-61" target="runT3AyKr49VSdhNjqDn-60" edge="1">
          <mxGeometry width="50" height="50" relative="1" as="geometry">
            <mxPoint x="240" y="400" as="sourcePoint" />
            <mxPoint x="290" y="350" as="targetPoint" />
          </mxGeometry>
        </mxCell>
        <mxCell id="runT3AyKr49VSdhNjqDn-76" value="" style="endArrow=classic;html=1;rounded=0;exitX=1.003;exitY=0.501;exitDx=0;exitDy=0;exitPerimeter=0;entryX=0;entryY=0.5;entryDx=0;entryDy=0;fillColor=#dae8fc;strokeColor=#6c8ebf;curved=1;" parent="1" source="runT3AyKr49VSdhNjqDn-60" target="runT3AyKr49VSdhNjqDn-63" edge="1">
          <mxGeometry width="50" height="50" relative="1" as="geometry">
            <mxPoint x="450" y="460" as="sourcePoint" />
            <mxPoint x="600" y="430" as="targetPoint" />
            <Array as="points">
              <mxPoint x="440" y="430" />
              <mxPoint x="570" y="430" />
            </Array>
          </mxGeometry>
        </mxCell>
        <mxCell id="runT3AyKr49VSdhNjqDn-77" value="" style="endArrow=classic;html=1;rounded=0;exitX=1.005;exitY=0.504;exitDx=0;exitDy=0;exitPerimeter=0;entryX=0;entryY=0.5;entryDx=0;entryDy=0;fillColor=#d5e8d4;strokeColor=#82b366;curved=1;" parent="1" source="runT3AyKr49VSdhNjqDn-58" target="runT3AyKr49VSdhNjqDn-62" edge="1">
          <mxGeometry width="50" height="50" relative="1" as="geometry">
            <mxPoint x="260" y="390" as="sourcePoint" />
            <mxPoint x="480" y="350" as="targetPoint" />
            <Array as="points">
              <mxPoint x="280" y="430" />
              <mxPoint x="410" y="430" />
            </Array>
          </mxGeometry>
        </mxCell>
        <mxCell id="runT3AyKr49VSdhNjqDn-78" value="" style="endArrow=classic;html=1;rounded=0;exitX=1.003;exitY=0.499;exitDx=0;exitDy=0;exitPerimeter=0;entryX=0;entryY=0.5;entryDx=0;entryDy=0;fillColor=#d5e8d4;strokeColor=#82b366;curved=1;" parent="1" source="runT3AyKr49VSdhNjqDn-58" target="runT3AyKr49VSdhNjqDn-63" edge="1">
          <mxGeometry width="50" height="50" relative="1" as="geometry">
            <mxPoint x="250" y="390" as="sourcePoint" />
            <mxPoint x="380" y="360" as="targetPoint" />
            <Array as="points">
              <mxPoint x="280" y="450" />
              <mxPoint x="570" y="450" />
            </Array>
          </mxGeometry>
        </mxCell>
        <mxCell id="runT3AyKr49VSdhNjqDn-79" value="" style="endArrow=classic;html=1;rounded=0;entryX=0;entryY=0.5;entryDx=0;entryDy=0;fillColor=#f8cecc;strokeColor=#b85450;curved=1;exitX=1.005;exitY=0.496;exitDx=0;exitDy=0;exitPerimeter=0;" parent="1" source="runT3AyKr49VSdhNjqDn-55" target="runT3AyKr49VSdhNjqDn-61" edge="1">
          <mxGeometry width="50" height="50" relative="1" as="geometry">
            <mxPoint x="100" y="390" as="sourcePoint" />
            <mxPoint x="280" y="390" as="targetPoint" />
            <Array as="points">
              <mxPoint x="120" y="430" />
              <mxPoint x="250" y="430" />
            </Array>
          </mxGeometry>
        </mxCell>
        <mxCell id="runT3AyKr49VSdhNjqDn-80" value="" style="endArrow=classic;html=1;rounded=0;exitX=0.998;exitY=0.495;exitDx=0;exitDy=0;exitPerimeter=0;entryX=0;entryY=0.5;entryDx=0;entryDy=0;fillColor=#f8cecc;strokeColor=#b85450;curved=1;" parent="1" source="runT3AyKr49VSdhNjqDn-55" target="runT3AyKr49VSdhNjqDn-62" edge="1">
          <mxGeometry width="50" height="50" relative="1" as="geometry">
            <mxPoint x="90" y="390" as="sourcePoint" />
            <mxPoint x="440" y="390" as="targetPoint" />
            <Array as="points">
              <mxPoint x="120" y="450" />
              <mxPoint x="410" y="450" />
            </Array>
          </mxGeometry>
        </mxCell>
        <mxCell id="runT3AyKr49VSdhNjqDn-81" value="" style="endArrow=classic;html=1;rounded=0;entryX=0;entryY=0.5;entryDx=0;entryDy=0;fillColor=#f8cecc;strokeColor=#b85450;curved=1;exitX=1.005;exitY=0.506;exitDx=0;exitDy=0;exitPerimeter=0;" parent="1" source="runT3AyKr49VSdhNjqDn-55" target="runT3AyKr49VSdhNjqDn-63" edge="1">
          <mxGeometry width="50" height="50" relative="1" as="geometry">
            <mxPoint x="110" y="400" as="sourcePoint" />
            <mxPoint x="520" y="460" as="targetPoint" />
            <Array as="points">
              <mxPoint x="120" y="470" />
              <mxPoint x="570" y="470" />
            </Array>
          </mxGeometry>
        </mxCell>
        <mxCell id="runT3AyKr49VSdhNjqDn-82" value="SODNet" style="text;html=1;strokeColor=none;fillColor=none;align=center;verticalAlign=middle;whiteSpace=wrap;rounded=0;" parent="1" vertex="1">
          <mxGeometry x="10" y="690" width="230" height="30" as="geometry" />
        </mxCell>
        <mxCell id="runT3AyKr49VSdhNjqDn-83" value="" style="shape=cube;whiteSpace=wrap;html=1;boundedLbl=1;backgroundOutline=1;darkOpacity=0.05;darkOpacity2=0.1;size=10;" parent="1" vertex="1">
          <mxGeometry x="70" y="590" width="50" height="50" as="geometry" />
        </mxCell>
        <mxCell id="runT3AyKr49VSdhNjqDn-85" value="" style="rounded=1;whiteSpace=wrap;html=1;" parent="1" vertex="1">
          <mxGeometry x="370" y="590" width="70" height="50" as="geometry" />
        </mxCell>
        <mxCell id="runT3AyKr49VSdhNjqDn-86" value="" style="endArrow=classic;html=1;rounded=0;" parent="1" edge="1">
          <mxGeometry width="50" height="50" relative="1" as="geometry">
            <mxPoint x="130" y="614.83" as="sourcePoint" />
            <mxPoint x="150" y="614.83" as="targetPoint" />
          </mxGeometry>
        </mxCell>
        <mxCell id="runT3AyKr49VSdhNjqDn-87" value="" style="endArrow=classic;html=1;rounded=0;" parent="1" edge="1">
          <mxGeometry width="50" height="50" relative="1" as="geometry">
            <mxPoint x="220" y="615" as="sourcePoint" />
            <mxPoint x="240" y="614.94" as="targetPoint" />
          </mxGeometry>
        </mxCell>
        <mxCell id="runT3AyKr49VSdhNjqDn-88" value="" style="endArrow=classic;html=1;rounded=0;" parent="1" edge="1">
          <mxGeometry width="50" height="50" relative="1" as="geometry">
            <mxPoint x="340" y="614.86" as="sourcePoint" />
            <mxPoint x="360" y="614.8000000000001" as="targetPoint" />
          </mxGeometry>
        </mxCell>
        <mxCell id="runT3AyKr49VSdhNjqDn-89" value="" style="shape=cube;whiteSpace=wrap;html=1;boundedLbl=1;backgroundOutline=1;darkOpacity=0.05;darkOpacity2=0.1;size=40;" parent="1" vertex="1">
          <mxGeometry x="480" y="575" width="80" height="80" as="geometry" />
        </mxCell>
        <mxCell id="runT3AyKr49VSdhNjqDn-90" value="" style="endArrow=classic;html=1;rounded=0;" parent="1" edge="1">
          <mxGeometry width="50" height="50" relative="1" as="geometry">
            <mxPoint x="450" y="615" as="sourcePoint" />
            <mxPoint x="470" y="614.94" as="targetPoint" />
          </mxGeometry>
        </mxCell>
        <mxCell id="runT3AyKr49VSdhNjqDn-91" value="" style="endArrow=classic;html=1;rounded=0;" parent="1" edge="1">
          <mxGeometry width="50" height="50" relative="1" as="geometry">
            <mxPoint x="570" y="614.86" as="sourcePoint" />
            <mxPoint x="590" y="614.8000000000001" as="targetPoint" />
          </mxGeometry>
        </mxCell>
        <mxCell id="runT3AyKr49VSdhNjqDn-93" value="" style="endArrow=classic;html=1;rounded=0;" parent="1" edge="1">
          <mxGeometry width="50" height="50" relative="1" as="geometry">
            <mxPoint x="660" y="615" as="sourcePoint" />
            <mxPoint x="680" y="614.94" as="targetPoint" />
          </mxGeometry>
        </mxCell>
        <mxCell id="runT3AyKr49VSdhNjqDn-94" value="" style="shape=cube;whiteSpace=wrap;html=1;boundedLbl=1;backgroundOutline=1;darkOpacity=0.05;darkOpacity2=0.1;size=10;" parent="1" vertex="1">
          <mxGeometry x="750" y="590" width="50" height="50" as="geometry" />
        </mxCell>
        <mxCell id="runT3AyKr49VSdhNjqDn-96" value="16x224x224" style="text;html=1;strokeColor=none;fillColor=none;align=center;verticalAlign=middle;whiteSpace=wrap;rounded=0;" parent="1" vertex="1">
          <mxGeometry x="60" y="570" width="70" height="20" as="geometry" />
        </mxCell>
        <mxCell id="runT3AyKr49VSdhNjqDn-97" value="16x224x224" style="text;html=1;strokeColor=none;fillColor=none;align=center;verticalAlign=middle;whiteSpace=wrap;rounded=0;" parent="1" vertex="1">
          <mxGeometry x="740" y="570" width="70" height="20" as="geometry" />
        </mxCell>
        <mxCell id="runT3AyKr49VSdhNjqDn-98" value="64x224x224" style="text;html=1;strokeColor=none;fillColor=none;align=center;verticalAlign=middle;whiteSpace=wrap;rounded=0;" parent="1" vertex="1">
          <mxGeometry x="240" y="555" width="70" height="20" as="geometry" />
        </mxCell>
        <mxCell id="runT3AyKr49VSdhNjqDn-99" value="64x224x224" style="text;html=1;strokeColor=none;fillColor=none;align=center;verticalAlign=middle;whiteSpace=wrap;rounded=0;" parent="1" vertex="1">
          <mxGeometry x="470" y="555" width="70" height="20" as="geometry" />
        </mxCell>
        <mxCell id="runT3AyKr49VSdhNjqDn-100" value="" style="endArrow=classic;html=1;rounded=1;curved=0;" parent="1" edge="1">
          <mxGeometry width="50" height="50" relative="1" as="geometry">
            <mxPoint x="130" y="620" as="sourcePoint" />
            <mxPoint x="700" y="630" as="targetPoint" />
            <Array as="points">
              <mxPoint x="130" y="660" />
              <mxPoint x="700" y="660" />
            </Array>
          </mxGeometry>
        </mxCell>
        <mxCell id="runT3AyKr49VSdhNjqDn-101" value="" style="verticalLabelPosition=bottom;shadow=0;dashed=0;align=center;html=1;verticalAlign=top;shape=mxgraph.electrical.abstract.summation_point;" parent="1" vertex="1">
          <mxGeometry x="690" y="605" width="20" height="20" as="geometry" />
        </mxCell>
        <mxCell id="runT3AyKr49VSdhNjqDn-103" value="" style="endArrow=classic;html=1;rounded=0;" parent="1" edge="1">
          <mxGeometry width="50" height="50" relative="1" as="geometry">
            <mxPoint x="720" y="614.92" as="sourcePoint" />
            <mxPoint x="740" y="614.86" as="targetPoint" />
          </mxGeometry>
        </mxCell>
        <mxCell id="runT3AyKr49VSdhNjqDn-111" value="" style="group" parent="1" vertex="1" connectable="0">
          <mxGeometry x="600" y="590" width="50" height="50" as="geometry" />
        </mxCell>
        <mxCell id="runT3AyKr49VSdhNjqDn-92" value="" style="rounded=1;whiteSpace=wrap;html=1;" parent="runT3AyKr49VSdhNjqDn-111" vertex="1">
          <mxGeometry width="50" height="50" as="geometry" />
        </mxCell>
        <mxCell id="runT3AyKr49VSdhNjqDn-110" value="" style="group" parent="runT3AyKr49VSdhNjqDn-111" vertex="1" connectable="0">
          <mxGeometry y="10" width="50" height="30" as="geometry" />
        </mxCell>
        <mxCell id="runT3AyKr49VSdhNjqDn-105" value="1x1" style="text;html=1;strokeColor=none;fillColor=none;align=center;verticalAlign=middle;whiteSpace=wrap;rounded=0;" parent="runT3AyKr49VSdhNjqDn-110" vertex="1">
          <mxGeometry y="12.857142857142858" width="50" height="17.14285714285714" as="geometry" />
        </mxCell>
        <mxCell id="runT3AyKr49VSdhNjqDn-104" value="Conv" style="text;html=1;strokeColor=none;fillColor=none;align=center;verticalAlign=middle;whiteSpace=wrap;rounded=0;" parent="runT3AyKr49VSdhNjqDn-110" vertex="1">
          <mxGeometry width="50" height="17.14285714285714" as="geometry" />
        </mxCell>
        <mxCell id="runT3AyKr49VSdhNjqDn-112" value="" style="group" parent="1" vertex="1" connectable="0">
          <mxGeometry x="160" y="590" width="50" height="50" as="geometry" />
        </mxCell>
        <mxCell id="runT3AyKr49VSdhNjqDn-113" value="" style="rounded=1;whiteSpace=wrap;html=1;" parent="runT3AyKr49VSdhNjqDn-112" vertex="1">
          <mxGeometry width="50" height="50" as="geometry" />
        </mxCell>
        <mxCell id="runT3AyKr49VSdhNjqDn-114" value="" style="group" parent="runT3AyKr49VSdhNjqDn-112" vertex="1" connectable="0">
          <mxGeometry y="10" width="50" height="30" as="geometry" />
        </mxCell>
        <mxCell id="runT3AyKr49VSdhNjqDn-115" value="1x1" style="text;html=1;strokeColor=none;fillColor=none;align=center;verticalAlign=middle;whiteSpace=wrap;rounded=0;" parent="runT3AyKr49VSdhNjqDn-114" vertex="1">
          <mxGeometry y="12.857142857142858" width="50" height="17.14285714285714" as="geometry" />
        </mxCell>
        <mxCell id="runT3AyKr49VSdhNjqDn-116" value="Conv" style="text;html=1;strokeColor=none;fillColor=none;align=center;verticalAlign=middle;whiteSpace=wrap;rounded=0;" parent="runT3AyKr49VSdhNjqDn-114" vertex="1">
          <mxGeometry width="50" height="17.14285714285714" as="geometry" />
        </mxCell>
        <mxCell id="runT3AyKr49VSdhNjqDn-120" value="" style="group" parent="1" vertex="1" connectable="0">
          <mxGeometry x="370" y="590" width="70" height="50" as="geometry" />
        </mxCell>
        <mxCell id="runT3AyKr49VSdhNjqDn-117" value="Depthwise" style="text;html=1;strokeColor=none;fillColor=none;align=center;verticalAlign=middle;whiteSpace=wrap;rounded=0;" parent="runT3AyKr49VSdhNjqDn-120" vertex="1">
          <mxGeometry width="70" height="25" as="geometry" />
        </mxCell>
        <mxCell id="runT3AyKr49VSdhNjqDn-118" value="Conv" style="text;html=1;strokeColor=none;fillColor=none;align=center;verticalAlign=middle;whiteSpace=wrap;rounded=0;" parent="runT3AyKr49VSdhNjqDn-120" vertex="1">
          <mxGeometry y="12.5" width="70" height="25" as="geometry" />
        </mxCell>
        <mxCell id="runT3AyKr49VSdhNjqDn-119" value="3x3" style="text;html=1;strokeColor=none;fillColor=none;align=center;verticalAlign=middle;whiteSpace=wrap;rounded=0;" parent="runT3AyKr49VSdhNjqDn-120" vertex="1">
          <mxGeometry y="25" width="70" height="25" as="geometry" />
        </mxCell>
        <mxCell id="runT3AyKr49VSdhNjqDn-123" value="" style="group" parent="1" vertex="1" connectable="0">
          <mxGeometry x="600" y="360" width="70" height="50" as="geometry" />
        </mxCell>
        <mxCell id="runT3AyKr49VSdhNjqDn-121" value="Warstwa" style="text;html=1;strokeColor=none;fillColor=none;align=center;verticalAlign=middle;whiteSpace=wrap;rounded=0;" parent="runT3AyKr49VSdhNjqDn-123" vertex="1">
          <mxGeometry width="70" height="33.33333333333333" as="geometry" />
        </mxCell>
        <mxCell id="runT3AyKr49VSdhNjqDn-122" value="przejściowa" style="text;html=1;strokeColor=none;fillColor=none;align=center;verticalAlign=middle;whiteSpace=wrap;rounded=0;" parent="runT3AyKr49VSdhNjqDn-123" vertex="1">
          <mxGeometry y="16.666666666666664" width="70" height="33.33333333333333" as="geometry" />
        </mxCell>
        <mxCell id="runT3AyKr49VSdhNjqDn-124" value="" style="group" parent="1" vertex="1" connectable="0">
          <mxGeometry x="390" y="220" width="50" height="50" as="geometry" />
        </mxCell>
        <mxCell id="runT3AyKr49VSdhNjqDn-125" value="" style="rounded=1;whiteSpace=wrap;html=1;" parent="runT3AyKr49VSdhNjqDn-124" vertex="1">
          <mxGeometry width="50" height="50" as="geometry" />
        </mxCell>
        <mxCell id="runT3AyKr49VSdhNjqDn-126" value="" style="group" parent="runT3AyKr49VSdhNjqDn-124" vertex="1" connectable="0">
          <mxGeometry y="10" width="50" height="30" as="geometry" />
        </mxCell>
        <mxCell id="runT3AyKr49VSdhNjqDn-127" value="1x1" style="text;html=1;strokeColor=none;fillColor=none;align=center;verticalAlign=middle;whiteSpace=wrap;rounded=0;" parent="runT3AyKr49VSdhNjqDn-126" vertex="1">
          <mxGeometry y="12.857142857142858" width="50" height="17.14285714285714" as="geometry" />
        </mxCell>
        <mxCell id="runT3AyKr49VSdhNjqDn-128" value="Conv" style="text;html=1;strokeColor=none;fillColor=none;align=center;verticalAlign=middle;whiteSpace=wrap;rounded=0;" parent="runT3AyKr49VSdhNjqDn-126" vertex="1">
          <mxGeometry width="50" height="17.14285714285714" as="geometry" />
        </mxCell>
        <mxCell id="runT3AyKr49VSdhNjqDn-130" value="" style="group" parent="1" vertex="1" connectable="0">
          <mxGeometry x="300" y="220" width="50" height="50" as="geometry" />
        </mxCell>
        <mxCell id="runT3AyKr49VSdhNjqDn-131" value="" style="rounded=1;whiteSpace=wrap;html=1;" parent="runT3AyKr49VSdhNjqDn-130" vertex="1">
          <mxGeometry width="50" height="50" as="geometry" />
        </mxCell>
        <mxCell id="runT3AyKr49VSdhNjqDn-132" value="" style="group" parent="runT3AyKr49VSdhNjqDn-130" vertex="1" connectable="0">
          <mxGeometry y="10" width="50" height="30" as="geometry" />
        </mxCell>
        <mxCell id="runT3AyKr49VSdhNjqDn-133" value="3x3" style="text;html=1;strokeColor=none;fillColor=none;align=center;verticalAlign=middle;whiteSpace=wrap;rounded=0;" parent="runT3AyKr49VSdhNjqDn-132" vertex="1">
          <mxGeometry y="12.857142857142858" width="50" height="17.14285714285714" as="geometry" />
        </mxCell>
        <mxCell id="runT3AyKr49VSdhNjqDn-134" value="Conv" style="text;html=1;strokeColor=none;fillColor=none;align=center;verticalAlign=middle;whiteSpace=wrap;rounded=0;" parent="runT3AyKr49VSdhNjqDn-132" vertex="1">
          <mxGeometry width="50" height="17.14285714285714" as="geometry" />
        </mxCell>
        <mxCell id="runT3AyKr49VSdhNjqDn-135" value="" style="group" parent="1" vertex="1" connectable="0">
          <mxGeometry x="210" y="220" width="50" height="50" as="geometry" />
        </mxCell>
        <mxCell id="runT3AyKr49VSdhNjqDn-136" value="" style="rounded=1;whiteSpace=wrap;html=1;" parent="runT3AyKr49VSdhNjqDn-135" vertex="1">
          <mxGeometry width="50" height="50" as="geometry" />
        </mxCell>
        <mxCell id="runT3AyKr49VSdhNjqDn-137" value="" style="group" parent="runT3AyKr49VSdhNjqDn-135" vertex="1" connectable="0">
          <mxGeometry y="10" width="50" height="30" as="geometry" />
        </mxCell>
        <mxCell id="runT3AyKr49VSdhNjqDn-138" value="1x1" style="text;html=1;strokeColor=none;fillColor=none;align=center;verticalAlign=middle;whiteSpace=wrap;rounded=0;" parent="runT3AyKr49VSdhNjqDn-137" vertex="1">
          <mxGeometry y="12.857142857142858" width="50" height="17.14285714285714" as="geometry" />
        </mxCell>
        <mxCell id="runT3AyKr49VSdhNjqDn-139" value="Conv" style="text;html=1;strokeColor=none;fillColor=none;align=center;verticalAlign=middle;whiteSpace=wrap;rounded=0;" parent="runT3AyKr49VSdhNjqDn-137" vertex="1">
          <mxGeometry width="50" height="17.14285714285714" as="geometry" />
        </mxCell>
        <mxCell id="ynXU6TOS3hzHKZeXR8SU-1" value="MobileNet v2 - inverted residual block" style="text;html=1;strokeColor=none;fillColor=none;align=center;verticalAlign=middle;whiteSpace=wrap;rounded=0;" parent="1" vertex="1">
          <mxGeometry x="10" y="530" width="230" height="30" as="geometry" />
        </mxCell>
        <mxCell id="ynXU6TOS3hzHKZeXR8SU-2" value="" style="shape=cube;whiteSpace=wrap;html=1;boundedLbl=1;backgroundOutline=1;darkOpacity=0.05;darkOpacity2=0.1;size=10;" parent="1" vertex="1">
          <mxGeometry x="70" y="750" width="50" height="50" as="geometry" />
        </mxCell>
        <mxCell id="ynXU6TOS3hzHKZeXR8SU-3" value="" style="endArrow=classic;html=1;rounded=0;" parent="1" edge="1">
          <mxGeometry width="50" height="50" relative="1" as="geometry">
            <mxPoint x="130" y="774.83" as="sourcePoint" />
            <mxPoint x="150" y="774.83" as="targetPoint" />
          </mxGeometry>
        </mxCell>
        <mxCell id="ynXU6TOS3hzHKZeXR8SU-4" value="" style="endArrow=classic;html=1;rounded=0;" parent="1" edge="1">
          <mxGeometry width="50" height="50" relative="1" as="geometry">
            <mxPoint x="220" y="775" as="sourcePoint" />
            <mxPoint x="240" y="774.94" as="targetPoint" />
          </mxGeometry>
        </mxCell>
        <mxCell id="ynXU6TOS3hzHKZeXR8SU-6" value="" style="group" parent="1" vertex="1" connectable="0">
          <mxGeometry x="160" y="750" width="50" height="50" as="geometry" />
        </mxCell>
        <mxCell id="ynXU6TOS3hzHKZeXR8SU-7" value="" style="rounded=1;whiteSpace=wrap;html=1;" parent="ynXU6TOS3hzHKZeXR8SU-6" vertex="1">
          <mxGeometry width="50" height="50" as="geometry" />
        </mxCell>
        <mxCell id="ynXU6TOS3hzHKZeXR8SU-8" value="" style="group" parent="ynXU6TOS3hzHKZeXR8SU-6" vertex="1" connectable="0">
          <mxGeometry y="10" width="50" height="30" as="geometry" />
        </mxCell>
        <mxCell id="ynXU6TOS3hzHKZeXR8SU-9" value="3x3" style="text;html=1;strokeColor=none;fillColor=none;align=center;verticalAlign=middle;whiteSpace=wrap;rounded=0;" parent="ynXU6TOS3hzHKZeXR8SU-8" vertex="1">
          <mxGeometry y="12.857142857142858" width="50" height="17.14285714285714" as="geometry" />
        </mxCell>
        <mxCell id="ynXU6TOS3hzHKZeXR8SU-10" value="Conv" style="text;html=1;strokeColor=none;fillColor=none;align=center;verticalAlign=middle;whiteSpace=wrap;rounded=0;" parent="ynXU6TOS3hzHKZeXR8SU-8" vertex="1">
          <mxGeometry width="50" height="17.14285714285714" as="geometry" />
        </mxCell>
        <mxCell id="ynXU6TOS3hzHKZeXR8SU-12" value="" style="group" parent="1" vertex="1" connectable="0">
          <mxGeometry x="250" y="750" width="50" height="50" as="geometry" />
        </mxCell>
        <mxCell id="ynXU6TOS3hzHKZeXR8SU-13" value="" style="rounded=1;whiteSpace=wrap;html=1;" parent="ynXU6TOS3hzHKZeXR8SU-12" vertex="1">
          <mxGeometry width="50" height="50" as="geometry" />
        </mxCell>
        <mxCell id="ynXU6TOS3hzHKZeXR8SU-14" value="" style="group" parent="ynXU6TOS3hzHKZeXR8SU-12" vertex="1" connectable="0">
          <mxGeometry y="10" width="50" height="30" as="geometry" />
        </mxCell>
        <mxCell id="ynXU6TOS3hzHKZeXR8SU-15" value="ReLU" style="text;html=1;strokeColor=none;fillColor=none;align=center;verticalAlign=middle;whiteSpace=wrap;rounded=0;" parent="ynXU6TOS3hzHKZeXR8SU-14" vertex="1">
          <mxGeometry y="12.857142857142858" width="50" height="17.14285714285714" as="geometry" />
        </mxCell>
        <mxCell id="ynXU6TOS3hzHKZeXR8SU-16" value="BN" style="text;html=1;strokeColor=none;fillColor=none;align=center;verticalAlign=middle;whiteSpace=wrap;rounded=0;" parent="ynXU6TOS3hzHKZeXR8SU-14" vertex="1">
          <mxGeometry width="50" height="17.14285714285714" as="geometry" />
        </mxCell>
        <mxCell id="ynXU6TOS3hzHKZeXR8SU-17" value="" style="endArrow=classic;html=1;rounded=0;" parent="1" edge="1">
          <mxGeometry width="50" height="50" relative="1" as="geometry">
            <mxPoint x="310" y="775" as="sourcePoint" />
            <mxPoint x="330" y="774.94" as="targetPoint" />
          </mxGeometry>
        </mxCell>
        <mxCell id="ynXU6TOS3hzHKZeXR8SU-18" value="" style="verticalLabelPosition=bottom;shadow=0;dashed=0;align=center;html=1;verticalAlign=top;shape=mxgraph.electrical.abstract.summation_point;" parent="1" vertex="1">
          <mxGeometry x="340" y="765" width="20" height="20" as="geometry" />
        </mxCell>
        <mxCell id="ynXU6TOS3hzHKZeXR8SU-19" value="" style="endArrow=classic;html=1;rounded=0;" parent="1" edge="1">
          <mxGeometry width="50" height="50" relative="1" as="geometry">
            <mxPoint x="550" y="774.77" as="sourcePoint" />
            <mxPoint x="570" y="774.71" as="targetPoint" />
          </mxGeometry>
        </mxCell>
        <mxCell id="ynXU6TOS3hzHKZeXR8SU-20" value="" style="endArrow=classic;html=1;rounded=1;curved=0;" parent="1" edge="1">
          <mxGeometry width="50" height="50" relative="1" as="geometry">
            <mxPoint x="130" y="780" as="sourcePoint" />
            <mxPoint x="350" y="790" as="targetPoint" />
            <Array as="points">
              <mxPoint x="130" y="810" />
              <mxPoint x="240" y="810" />
              <mxPoint x="350" y="810" />
            </Array>
          </mxGeometry>
        </mxCell>
        <mxCell id="ynXU6TOS3hzHKZeXR8SU-34" value="" style="endArrow=classic;html=1;rounded=0;" parent="1" edge="1">
          <mxGeometry width="50" height="50" relative="1" as="geometry">
            <mxPoint x="460" y="775" as="sourcePoint" />
            <mxPoint x="480" y="774.94" as="targetPoint" />
          </mxGeometry>
        </mxCell>
        <mxCell id="ynXU6TOS3hzHKZeXR8SU-35" value="" style="group" parent="1" vertex="1" connectable="0">
          <mxGeometry x="400" y="750" width="50" height="50" as="geometry" />
        </mxCell>
        <mxCell id="ynXU6TOS3hzHKZeXR8SU-36" value="" style="rounded=1;whiteSpace=wrap;html=1;" parent="ynXU6TOS3hzHKZeXR8SU-35" vertex="1">
          <mxGeometry width="50" height="50" as="geometry" />
        </mxCell>
        <mxCell id="ynXU6TOS3hzHKZeXR8SU-37" value="" style="group" parent="ynXU6TOS3hzHKZeXR8SU-35" vertex="1" connectable="0">
          <mxGeometry y="10" width="50" height="30" as="geometry" />
        </mxCell>
        <mxCell id="ynXU6TOS3hzHKZeXR8SU-38" value="3x3" style="text;html=1;strokeColor=none;fillColor=none;align=center;verticalAlign=middle;whiteSpace=wrap;rounded=0;" parent="ynXU6TOS3hzHKZeXR8SU-37" vertex="1">
          <mxGeometry y="12.857142857142858" width="50" height="17.14285714285714" as="geometry" />
        </mxCell>
        <mxCell id="ynXU6TOS3hzHKZeXR8SU-39" value="Conv" style="text;html=1;strokeColor=none;fillColor=none;align=center;verticalAlign=middle;whiteSpace=wrap;rounded=0;" parent="ynXU6TOS3hzHKZeXR8SU-37" vertex="1">
          <mxGeometry width="50" height="17.14285714285714" as="geometry" />
        </mxCell>
        <mxCell id="ynXU6TOS3hzHKZeXR8SU-40" value="" style="group" parent="1" vertex="1" connectable="0">
          <mxGeometry x="490" y="750" width="50" height="50" as="geometry" />
        </mxCell>
        <mxCell id="ynXU6TOS3hzHKZeXR8SU-41" value="" style="rounded=1;whiteSpace=wrap;html=1;" parent="ynXU6TOS3hzHKZeXR8SU-40" vertex="1">
          <mxGeometry width="50" height="50" as="geometry" />
        </mxCell>
        <mxCell id="ynXU6TOS3hzHKZeXR8SU-42" value="" style="group" parent="ynXU6TOS3hzHKZeXR8SU-40" vertex="1" connectable="0">
          <mxGeometry y="10" width="50" height="30" as="geometry" />
        </mxCell>
        <mxCell id="ynXU6TOS3hzHKZeXR8SU-43" value="ReLU" style="text;html=1;strokeColor=none;fillColor=none;align=center;verticalAlign=middle;whiteSpace=wrap;rounded=0;" parent="ynXU6TOS3hzHKZeXR8SU-42" vertex="1">
          <mxGeometry y="12.857142857142858" width="50" height="17.14285714285714" as="geometry" />
        </mxCell>
        <mxCell id="ynXU6TOS3hzHKZeXR8SU-44" value="BN" style="text;html=1;strokeColor=none;fillColor=none;align=center;verticalAlign=middle;whiteSpace=wrap;rounded=0;" parent="ynXU6TOS3hzHKZeXR8SU-42" vertex="1">
          <mxGeometry width="50" height="17.14285714285714" as="geometry" />
        </mxCell>
        <mxCell id="ynXU6TOS3hzHKZeXR8SU-45" value="" style="endArrow=classic;html=1;rounded=0;" parent="1" edge="1">
          <mxGeometry width="50" height="50" relative="1" as="geometry">
            <mxPoint x="370" y="775" as="sourcePoint" />
            <mxPoint x="390" y="774.94" as="targetPoint" />
          </mxGeometry>
        </mxCell>
        <mxCell id="ynXU6TOS3hzHKZeXR8SU-49" value="" style="group" parent="1" vertex="1" connectable="0">
          <mxGeometry x="580" y="750" width="70" height="50" as="geometry" />
        </mxCell>
        <mxCell id="ynXU6TOS3hzHKZeXR8SU-50" value="" style="rounded=1;whiteSpace=wrap;html=1;" parent="ynXU6TOS3hzHKZeXR8SU-49" vertex="1">
          <mxGeometry width="50" height="50" as="geometry" />
        </mxCell>
        <mxCell id="ynXU6TOS3hzHKZeXR8SU-51" value="" style="group" parent="ynXU6TOS3hzHKZeXR8SU-49" vertex="1" connectable="0">
          <mxGeometry y="10" width="70" height="30" as="geometry" />
        </mxCell>
        <mxCell id="ynXU6TOS3hzHKZeXR8SU-52" value="2x2" style="text;html=1;strokeColor=none;fillColor=none;align=center;verticalAlign=middle;whiteSpace=wrap;rounded=0;" parent="ynXU6TOS3hzHKZeXR8SU-51" vertex="1">
          <mxGeometry y="12.857142857142858" width="50" height="17.14285714285714" as="geometry" />
        </mxCell>
        <mxCell id="ynXU6TOS3hzHKZeXR8SU-53" value="MaxPool" style="text;html=1;strokeColor=none;fillColor=none;align=center;verticalAlign=middle;whiteSpace=wrap;rounded=0;" parent="ynXU6TOS3hzHKZeXR8SU-51" vertex="1">
          <mxGeometry x="-10" width="70" height="17.14" as="geometry" />
        </mxCell>
        <mxCell id="ynXU6TOS3hzHKZeXR8SU-55" value="" style="shape=cube;whiteSpace=wrap;html=1;boundedLbl=1;backgroundOutline=1;darkOpacity=0.05;darkOpacity2=0.1;size=20;" parent="1" vertex="1">
          <mxGeometry x="670" y="750" width="50" height="50" as="geometry" />
        </mxCell>
        <mxCell id="ynXU6TOS3hzHKZeXR8SU-56" value="" style="endArrow=classic;html=1;rounded=0;" parent="1" edge="1">
          <mxGeometry width="50" height="50" relative="1" as="geometry">
            <mxPoint x="640" y="774.86" as="sourcePoint" />
            <mxPoint x="660" y="774.86" as="targetPoint" />
          </mxGeometry>
        </mxCell>
        <mxCell id="ynXU6TOS3hzHKZeXR8SU-57" value="32x128x128" style="text;html=1;strokeColor=none;fillColor=none;align=center;verticalAlign=middle;whiteSpace=wrap;rounded=0;" parent="1" vertex="1">
          <mxGeometry x="645" y="730" width="100" height="20" as="geometry" />
        </mxCell>
        <mxCell id="DSJxxZyCmg2uPg7m7t_v-2" value="(4!!!) FCNet &amp;amp; SCVNet" style="text;html=1;strokeColor=none;fillColor=none;align=center;verticalAlign=middle;whiteSpace=wrap;rounded=0;" vertex="1" parent="1">
          <mxGeometry y="860" width="230" height="30" as="geometry" />
        </mxCell>
        <mxCell id="DSJxxZyCmg2uPg7m7t_v-3" value="16x256x256" style="text;html=1;strokeColor=none;fillColor=none;align=center;verticalAlign=middle;whiteSpace=wrap;rounded=0;" vertex="1" parent="1">
          <mxGeometry x="55" y="740" width="100" height="20" as="geometry" />
        </mxCell>
        <mxCell id="ynXU6TOS3hzHKZeXR8SU-5" value="28x28" style="text;html=1;strokeColor=none;fillColor=none;align=center;verticalAlign=middle;whiteSpace=wrap;rounded=0;" parent="1" vertex="1">
          <mxGeometry x="313.75" y="960" width="62.5" height="20" as="geometry" />
        </mxCell>
        <mxCell id="DSJxxZyCmg2uPg7m7t_v-1" value="" style="whiteSpace=wrap;html=1;aspect=fixed;" vertex="1" parent="1">
          <mxGeometry x="325" y="980" width="40" height="40" as="geometry" />
        </mxCell>
        <mxCell id="DSJxxZyCmg2uPg7m7t_v-5" value="" style="group" vertex="1" connectable="0" parent="1">
          <mxGeometry x="405" y="975" width="50" height="50" as="geometry" />
        </mxCell>
        <mxCell id="DSJxxZyCmg2uPg7m7t_v-6" value="" style="rounded=1;whiteSpace=wrap;html=1;" vertex="1" parent="DSJxxZyCmg2uPg7m7t_v-5">
          <mxGeometry width="50" height="50" as="geometry" />
        </mxCell>
        <mxCell id="DSJxxZyCmg2uPg7m7t_v-7" value="" style="group" vertex="1" connectable="0" parent="DSJxxZyCmg2uPg7m7t_v-5">
          <mxGeometry y="10" width="50" height="30" as="geometry" />
        </mxCell>
        <mxCell id="DSJxxZyCmg2uPg7m7t_v-8" value="800" style="text;html=1;strokeColor=none;fillColor=none;align=center;verticalAlign=middle;whiteSpace=wrap;rounded=0;" vertex="1" parent="DSJxxZyCmg2uPg7m7t_v-7">
          <mxGeometry y="12.857142857142858" width="50" height="17.14285714285714" as="geometry" />
        </mxCell>
        <mxCell id="DSJxxZyCmg2uPg7m7t_v-9" value="Dense" style="text;html=1;strokeColor=none;fillColor=none;align=center;verticalAlign=middle;whiteSpace=wrap;rounded=0;" vertex="1" parent="DSJxxZyCmg2uPg7m7t_v-7">
          <mxGeometry width="50" height="17.14285714285714" as="geometry" />
        </mxCell>
        <mxCell id="DSJxxZyCmg2uPg7m7t_v-10" value="" style="endArrow=classic;html=1;rounded=0;" edge="1" parent="1">
          <mxGeometry width="50" height="50" relative="1" as="geometry">
            <mxPoint x="375" y="999.86" as="sourcePoint" />
            <mxPoint x="395" y="999.86" as="targetPoint" />
          </mxGeometry>
        </mxCell>
        <mxCell id="DSJxxZyCmg2uPg7m7t_v-11" value="" style="endArrow=classic;html=1;rounded=0;" edge="1" parent="1">
          <mxGeometry width="50" height="50" relative="1" as="geometry">
            <mxPoint x="465" y="999.92" as="sourcePoint" />
            <mxPoint x="485" y="999.86" as="targetPoint" />
          </mxGeometry>
        </mxCell>
        <mxCell id="DSJxxZyCmg2uPg7m7t_v-12" value="" style="group" vertex="1" connectable="0" parent="1">
          <mxGeometry x="495" y="975" width="50" height="50" as="geometry" />
        </mxCell>
        <mxCell id="DSJxxZyCmg2uPg7m7t_v-13" value="" style="rounded=1;whiteSpace=wrap;html=1;" vertex="1" parent="DSJxxZyCmg2uPg7m7t_v-12">
          <mxGeometry width="50" height="50" as="geometry" />
        </mxCell>
        <mxCell id="DSJxxZyCmg2uPg7m7t_v-14" value="" style="group" vertex="1" connectable="0" parent="DSJxxZyCmg2uPg7m7t_v-12">
          <mxGeometry y="10" width="50" height="30" as="geometry" />
        </mxCell>
        <mxCell id="DSJxxZyCmg2uPg7m7t_v-15" value="10" style="text;html=1;strokeColor=none;fillColor=none;align=center;verticalAlign=middle;whiteSpace=wrap;rounded=0;" vertex="1" parent="DSJxxZyCmg2uPg7m7t_v-14">
          <mxGeometry y="12.857142857142858" width="50" height="17.14285714285714" as="geometry" />
        </mxCell>
        <mxCell id="DSJxxZyCmg2uPg7m7t_v-16" value="Dense" style="text;html=1;strokeColor=none;fillColor=none;align=center;verticalAlign=middle;whiteSpace=wrap;rounded=0;" vertex="1" parent="DSJxxZyCmg2uPg7m7t_v-14">
          <mxGeometry width="50" height="17.14285714285714" as="geometry" />
        </mxCell>
        <mxCell id="DSJxxZyCmg2uPg7m7t_v-17" value="" style="whiteSpace=wrap;html=1;aspect=fixed;" vertex="1" parent="1">
          <mxGeometry x="150" y="1060" width="40" height="40" as="geometry" />
        </mxCell>
        <mxCell id="DSJxxZyCmg2uPg7m7t_v-19" value="" style="group" vertex="1" connectable="0" parent="1">
          <mxGeometry x="225" y="1055" width="50" height="50" as="geometry" />
        </mxCell>
        <mxCell id="DSJxxZyCmg2uPg7m7t_v-20" value="" style="rounded=1;whiteSpace=wrap;html=1;" vertex="1" parent="DSJxxZyCmg2uPg7m7t_v-19">
          <mxGeometry width="50" height="50" as="geometry" />
        </mxCell>
        <mxCell id="DSJxxZyCmg2uPg7m7t_v-21" value="" style="group" vertex="1" connectable="0" parent="DSJxxZyCmg2uPg7m7t_v-19">
          <mxGeometry y="10" width="50" height="30" as="geometry" />
        </mxCell>
        <mxCell id="DSJxxZyCmg2uPg7m7t_v-22" value="5x5" style="text;html=1;strokeColor=none;fillColor=none;align=center;verticalAlign=middle;whiteSpace=wrap;rounded=0;" vertex="1" parent="DSJxxZyCmg2uPg7m7t_v-21">
          <mxGeometry y="12.857142857142858" width="50" height="17.14285714285714" as="geometry" />
        </mxCell>
        <mxCell id="DSJxxZyCmg2uPg7m7t_v-23" value="Conv" style="text;html=1;strokeColor=none;fillColor=none;align=center;verticalAlign=middle;whiteSpace=wrap;rounded=0;" vertex="1" parent="DSJxxZyCmg2uPg7m7t_v-21">
          <mxGeometry width="50" height="17.14285714285714" as="geometry" />
        </mxCell>
        <mxCell id="DSJxxZyCmg2uPg7m7t_v-24" value="" style="endArrow=classic;html=1;rounded=0;" edge="1" parent="1">
          <mxGeometry width="50" height="50" relative="1" as="geometry">
            <mxPoint x="195" y="1079.8899999999999" as="sourcePoint" />
            <mxPoint x="215" y="1079.83" as="targetPoint" />
          </mxGeometry>
        </mxCell>
        <mxCell id="DSJxxZyCmg2uPg7m7t_v-25" value="" style="endArrow=classic;html=1;rounded=0;" edge="1" parent="1">
          <mxGeometry width="50" height="50" relative="1" as="geometry">
            <mxPoint x="285" y="1079.8899999999999" as="sourcePoint" />
            <mxPoint x="305" y="1079.83" as="targetPoint" />
          </mxGeometry>
        </mxCell>
        <mxCell id="DSJxxZyCmg2uPg7m7t_v-26" value="" style="group" vertex="1" connectable="0" parent="1">
          <mxGeometry x="315" y="1055" width="70" height="50" as="geometry" />
        </mxCell>
        <mxCell id="DSJxxZyCmg2uPg7m7t_v-27" value="" style="rounded=1;whiteSpace=wrap;html=1;" vertex="1" parent="DSJxxZyCmg2uPg7m7t_v-26">
          <mxGeometry width="50" height="49" as="geometry" />
        </mxCell>
        <mxCell id="DSJxxZyCmg2uPg7m7t_v-28" value="" style="group" vertex="1" connectable="0" parent="DSJxxZyCmg2uPg7m7t_v-26">
          <mxGeometry y="10" width="70" height="30" as="geometry" />
        </mxCell>
        <mxCell id="DSJxxZyCmg2uPg7m7t_v-29" value="2x2" style="text;html=1;strokeColor=none;fillColor=none;align=center;verticalAlign=middle;whiteSpace=wrap;rounded=0;" vertex="1" parent="DSJxxZyCmg2uPg7m7t_v-28">
          <mxGeometry y="12.857142857142858" width="50" height="17.14285714285714" as="geometry" />
        </mxCell>
        <mxCell id="DSJxxZyCmg2uPg7m7t_v-30" value="MaxPool" style="text;html=1;strokeColor=none;fillColor=none;align=center;verticalAlign=middle;whiteSpace=wrap;rounded=0;" vertex="1" parent="DSJxxZyCmg2uPg7m7t_v-28">
          <mxGeometry x="-10" width="70" height="17.14" as="geometry" />
        </mxCell>
        <mxCell id="DSJxxZyCmg2uPg7m7t_v-31" value="" style="endArrow=classic;html=1;rounded=0;" edge="1" parent="1">
          <mxGeometry width="50" height="50" relative="1" as="geometry">
            <mxPoint x="375" y="1079.83" as="sourcePoint" />
            <mxPoint x="395" y="1079.83" as="targetPoint" />
          </mxGeometry>
        </mxCell>
        <mxCell id="DSJxxZyCmg2uPg7m7t_v-44" value="" style="group" vertex="1" connectable="0" parent="1">
          <mxGeometry x="405" y="1055" width="50" height="50" as="geometry" />
        </mxCell>
        <mxCell id="DSJxxZyCmg2uPg7m7t_v-45" value="" style="rounded=1;whiteSpace=wrap;html=1;" vertex="1" parent="DSJxxZyCmg2uPg7m7t_v-44">
          <mxGeometry width="50" height="50" as="geometry" />
        </mxCell>
        <mxCell id="DSJxxZyCmg2uPg7m7t_v-46" value="" style="group" vertex="1" connectable="0" parent="DSJxxZyCmg2uPg7m7t_v-44">
          <mxGeometry y="10" width="50" height="30" as="geometry" />
        </mxCell>
        <mxCell id="DSJxxZyCmg2uPg7m7t_v-47" value="5x5" style="text;html=1;strokeColor=none;fillColor=none;align=center;verticalAlign=middle;whiteSpace=wrap;rounded=0;" vertex="1" parent="DSJxxZyCmg2uPg7m7t_v-46">
          <mxGeometry y="12.857142857142858" width="50" height="17.14285714285714" as="geometry" />
        </mxCell>
        <mxCell id="DSJxxZyCmg2uPg7m7t_v-48" value="Conv" style="text;html=1;strokeColor=none;fillColor=none;align=center;verticalAlign=middle;whiteSpace=wrap;rounded=0;" vertex="1" parent="DSJxxZyCmg2uPg7m7t_v-46">
          <mxGeometry width="50" height="17.14285714285714" as="geometry" />
        </mxCell>
        <mxCell id="DSJxxZyCmg2uPg7m7t_v-49" value="" style="endArrow=classic;html=1;rounded=0;" edge="1" parent="1">
          <mxGeometry width="50" height="50" relative="1" as="geometry">
            <mxPoint x="465" y="1079.8899999999999" as="sourcePoint" />
            <mxPoint x="485" y="1079.83" as="targetPoint" />
          </mxGeometry>
        </mxCell>
        <mxCell id="DSJxxZyCmg2uPg7m7t_v-50" value="" style="group" vertex="1" connectable="0" parent="1">
          <mxGeometry x="495" y="1055" width="70" height="50" as="geometry" />
        </mxCell>
        <mxCell id="DSJxxZyCmg2uPg7m7t_v-51" value="" style="rounded=1;whiteSpace=wrap;html=1;" vertex="1" parent="DSJxxZyCmg2uPg7m7t_v-50">
          <mxGeometry width="50" height="49" as="geometry" />
        </mxCell>
        <mxCell id="DSJxxZyCmg2uPg7m7t_v-52" value="" style="group" vertex="1" connectable="0" parent="DSJxxZyCmg2uPg7m7t_v-50">
          <mxGeometry y="10" width="70" height="30" as="geometry" />
        </mxCell>
        <mxCell id="DSJxxZyCmg2uPg7m7t_v-53" value="2x2" style="text;html=1;strokeColor=none;fillColor=none;align=center;verticalAlign=middle;whiteSpace=wrap;rounded=0;" vertex="1" parent="DSJxxZyCmg2uPg7m7t_v-52">
          <mxGeometry y="12.857142857142858" width="50" height="17.14285714285714" as="geometry" />
        </mxCell>
        <mxCell id="DSJxxZyCmg2uPg7m7t_v-54" value="MaxPool" style="text;html=1;strokeColor=none;fillColor=none;align=center;verticalAlign=middle;whiteSpace=wrap;rounded=0;" vertex="1" parent="DSJxxZyCmg2uPg7m7t_v-52">
          <mxGeometry x="-10" width="70" height="17.14" as="geometry" />
        </mxCell>
        <mxCell id="DSJxxZyCmg2uPg7m7t_v-56" value="" style="group" vertex="1" connectable="0" parent="1">
          <mxGeometry x="590" y="1055" width="50" height="50" as="geometry" />
        </mxCell>
        <mxCell id="DSJxxZyCmg2uPg7m7t_v-57" value="" style="rounded=1;whiteSpace=wrap;html=1;" vertex="1" parent="DSJxxZyCmg2uPg7m7t_v-56">
          <mxGeometry width="50" height="50" as="geometry" />
        </mxCell>
        <mxCell id="DSJxxZyCmg2uPg7m7t_v-58" value="" style="group" vertex="1" connectable="0" parent="DSJxxZyCmg2uPg7m7t_v-56">
          <mxGeometry y="10" width="50" height="30" as="geometry" />
        </mxCell>
        <mxCell id="DSJxxZyCmg2uPg7m7t_v-59" value="500" style="text;html=1;strokeColor=none;fillColor=none;align=center;verticalAlign=middle;whiteSpace=wrap;rounded=0;" vertex="1" parent="DSJxxZyCmg2uPg7m7t_v-58">
          <mxGeometry y="12.857142857142858" width="50" height="17.14285714285714" as="geometry" />
        </mxCell>
        <mxCell id="DSJxxZyCmg2uPg7m7t_v-60" value="Dense" style="text;html=1;strokeColor=none;fillColor=none;align=center;verticalAlign=middle;whiteSpace=wrap;rounded=0;" vertex="1" parent="DSJxxZyCmg2uPg7m7t_v-58">
          <mxGeometry width="50" height="17.14285714285714" as="geometry" />
        </mxCell>
        <mxCell id="DSJxxZyCmg2uPg7m7t_v-61" value="" style="endArrow=classic;html=1;rounded=0;" edge="1" parent="1">
          <mxGeometry width="50" height="50" relative="1" as="geometry">
            <mxPoint x="560" y="1079.83" as="sourcePoint" />
            <mxPoint x="580" y="1079.83" as="targetPoint" />
          </mxGeometry>
        </mxCell>
        <mxCell id="DSJxxZyCmg2uPg7m7t_v-62" value="" style="endArrow=classic;html=1;rounded=0;" edge="1" parent="1">
          <mxGeometry width="50" height="50" relative="1" as="geometry">
            <mxPoint x="650" y="1079.8899999999999" as="sourcePoint" />
            <mxPoint x="670" y="1079.83" as="targetPoint" />
          </mxGeometry>
        </mxCell>
        <mxCell id="DSJxxZyCmg2uPg7m7t_v-63" value="" style="group" vertex="1" connectable="0" parent="1">
          <mxGeometry x="680" y="1055" width="50" height="50" as="geometry" />
        </mxCell>
        <mxCell id="DSJxxZyCmg2uPg7m7t_v-64" value="" style="rounded=1;whiteSpace=wrap;html=1;" vertex="1" parent="DSJxxZyCmg2uPg7m7t_v-63">
          <mxGeometry width="50" height="50" as="geometry" />
        </mxCell>
        <mxCell id="DSJxxZyCmg2uPg7m7t_v-65" value="" style="group" vertex="1" connectable="0" parent="DSJxxZyCmg2uPg7m7t_v-63">
          <mxGeometry y="10" width="50" height="30" as="geometry" />
        </mxCell>
        <mxCell id="DSJxxZyCmg2uPg7m7t_v-66" value="10" style="text;html=1;strokeColor=none;fillColor=none;align=center;verticalAlign=middle;whiteSpace=wrap;rounded=0;" vertex="1" parent="DSJxxZyCmg2uPg7m7t_v-65">
          <mxGeometry y="12.857142857142858" width="50" height="17.14285714285714" as="geometry" />
        </mxCell>
        <mxCell id="DSJxxZyCmg2uPg7m7t_v-67" value="Dense" style="text;html=1;strokeColor=none;fillColor=none;align=center;verticalAlign=middle;whiteSpace=wrap;rounded=0;" vertex="1" parent="DSJxxZyCmg2uPg7m7t_v-65">
          <mxGeometry width="50" height="17.14285714285714" as="geometry" />
        </mxCell>
        <mxCell id="DSJxxZyCmg2uPg7m7t_v-18" value="28x28" style="text;html=1;strokeColor=none;fillColor=none;align=center;verticalAlign=middle;whiteSpace=wrap;rounded=0;" vertex="1" parent="1">
          <mxGeometry x="150" y="1040" width="40" height="20" as="geometry" />
        </mxCell>
        <mxCell id="DSJxxZyCmg2uPg7m7t_v-72" value="" style="endArrow=none;dashed=1;html=1;dashPattern=1 3;strokeWidth=2;rounded=0;exitX=0;exitY=0;exitDx=0;exitDy=0;" edge="1" parent="1" source="DSJxxZyCmg2uPg7m7t_v-18">
          <mxGeometry width="50" height="50" relative="1" as="geometry">
            <mxPoint x="150" y="1030" as="sourcePoint" />
            <mxPoint x="730" y="1040" as="targetPoint" />
          </mxGeometry>
        </mxCell>
      </root>
    </mxGraphModel>
  </diagram>
</mxfile>
